<svg xmlns="http://www.w3.org/2000/svg" xmlns:xlink="http://www.w3.org/1999/xlink" width="1080" zoomAndPan="magnify" viewBox="0 0 810 809.999993" height="1080" preserveAspectRatio="xMidYMid meet" version="1.0"><defs><clipPath id="ec246d3ea8"><path d="M 37.535156 37.535156 L 772.464844 37.535156 L 772.464844 772.464844 L 37.535156 772.464844 Z M 37.535156 37.535156 " clip-rule="nonzero"/></clipPath><clipPath id="8ceb30356c"><path d="M 405 37.535156 C 202.054688 37.535156 37.535156 202.054688 37.535156 405 C 37.535156 607.945312 202.054688 772.464844 405 772.464844 C 607.945312 772.464844 772.464844 607.945312 772.464844 405 C 772.464844 202.054688 607.945312 37.535156 405 37.535156 Z M 405 37.535156 " clip-rule="nonzero"/></clipPath><clipPath id="8449ef9610"><path d="M 219 211.113281 L 590.855469 211.113281 L 590.855469 583.113281 L 219 583.113281 Z M 219 211.113281 " clip-rule="nonzero"/></clipPath></defs><g clip-path="url(#ec246d3ea8)"><g clip-path="url(#8ceb30356c)"><path fill="#9336e1" d="M 37.535156 37.535156 L 772.464844 37.535156 L 772.464844 772.464844 L 37.535156 772.464844 Z M 37.535156 37.535156 " fill-opacity="1" fill-rule="nonzero"/></g></g><g clip-path="url(#8449ef9610)"><path fill="#ffffff" d="M 585.105469 583.367188 L 224.917969 583.367188 C 221.65625 583.367188 219.011719 580.722656 219.011719 577.460938 L 219.011719 543.816406 C 219.011719 487.835938 264.558594 442.292969 320.535156 442.292969 L 489.484375 442.292969 C 545.464844 442.292969 591.011719 487.835938 591.011719 543.816406 L 591.011719 577.460938 C 591.011719 580.722656 588.367188 583.367188 585.105469 583.367188 Z M 405.011719 426.417969 C 345.652344 426.417969 297.359375 378.125 297.359375 318.765625 C 297.359375 259.40625 345.652344 211.113281 405.011719 211.113281 C 464.371094 211.113281 512.664062 259.40625 512.664062 318.765625 C 512.664062 378.125 464.371094 426.417969 405.011719 426.417969 Z M 405.011719 426.417969 " fill-opacity="1" fill-rule="nonzero"/></g></svg>